<mxfile host="Electron" modified="2023-09-16T09:07:07.511Z" agent="Mozilla/5.0 (Windows NT 10.0; Win64; x64) AppleWebKit/537.36 (KHTML, like Gecko) draw.io/21.6.8 Chrome/114.0.5735.289 Electron/25.5.0 Safari/537.36" etag="Dw1GSGzquJJw3kNk0ily" version="21.6.8" type="device">
  <diagram name="Page-1" id="0BDQKBIZZL_4rDw-r_er">
    <mxGraphModel dx="2268" dy="2016" grid="1" gridSize="10" guides="1" tooltips="1" connect="1" arrows="1" fold="1" page="1" pageScale="1" pageWidth="850" pageHeight="1100" math="0" shadow="0">
      <root>
        <mxCell id="0" />
        <mxCell id="1" parent="0" />
        <mxCell id="o5oyRe7uG-Ax35QUJMQp-46" value="" style="endArrow=classic;html=1;rounded=0;entryX=0.982;entryY=0.586;entryDx=0;entryDy=0;entryPerimeter=0;exitX=-0.007;exitY=0.52;exitDx=0;exitDy=0;dashed=1;exitPerimeter=0;" edge="1" parent="1" source="o5oyRe7uG-Ax35QUJMQp-7" target="o5oyRe7uG-Ax35QUJMQp-21">
          <mxGeometry width="50" height="50" relative="1" as="geometry">
            <mxPoint x="250" y="480" as="sourcePoint" />
            <mxPoint x="300" y="430" as="targetPoint" />
          </mxGeometry>
        </mxCell>
        <mxCell id="o5oyRe7uG-Ax35QUJMQp-47" value="Response" style="edgeLabel;html=1;align=center;verticalAlign=middle;resizable=0;points=[];" vertex="1" connectable="0" parent="o5oyRe7uG-Ax35QUJMQp-46">
          <mxGeometry x="-0.6336" y="-2" relative="1" as="geometry">
            <mxPoint x="1" as="offset" />
          </mxGeometry>
        </mxCell>
        <mxCell id="o5oyRe7uG-Ax35QUJMQp-7" value="" style="rounded=0;whiteSpace=wrap;html=1;align=right;fontSize=18;labelPosition=left;verticalLabelPosition=top;verticalAlign=bottom;horizontal=1;dashed=1;dashPattern=8 8;fillStyle=auto;fillColor=none;" vertex="1" parent="1">
          <mxGeometry x="150" y="70" width="510" height="480" as="geometry" />
        </mxCell>
        <mxCell id="o5oyRe7uG-Ax35QUJMQp-1" value="UserAuthentication&lt;br&gt;Service" style="rounded=0;whiteSpace=wrap;html=1;fillColor=#d5e8d4;strokeColor=#82b366;" vertex="1" parent="1">
          <mxGeometry x="210" y="210" width="140" height="60" as="geometry" />
        </mxCell>
        <mxCell id="o5oyRe7uG-Ax35QUJMQp-3" value="IDP" style="rounded=0;whiteSpace=wrap;html=1;fillColor=#f8cecc;strokeColor=#b85450;" vertex="1" parent="1">
          <mxGeometry x="440" y="-10" width="120" height="60" as="geometry" />
        </mxCell>
        <mxCell id="o5oyRe7uG-Ax35QUJMQp-4" value="" style="endArrow=classic;html=1;rounded=0;entryX=0;entryY=0.5;entryDx=0;entryDy=0;" edge="1" parent="1" target="o5oyRe7uG-Ax35QUJMQp-3">
          <mxGeometry width="50" height="50" relative="1" as="geometry">
            <mxPoint x="282" y="210" as="sourcePoint" />
            <mxPoint x="440" y="250" as="targetPoint" />
            <Array as="points">
              <mxPoint x="282" y="130" />
              <mxPoint x="280" y="20" />
            </Array>
          </mxGeometry>
        </mxCell>
        <mxCell id="o5oyRe7uG-Ax35QUJMQp-10" value="Login/Social Login/Register" style="edgeLabel;html=1;align=center;verticalAlign=middle;resizable=0;points=[];" vertex="1" connectable="0" parent="o5oyRe7uG-Ax35QUJMQp-4">
          <mxGeometry x="-0.1102" y="-6" relative="1" as="geometry">
            <mxPoint y="-26" as="offset" />
          </mxGeometry>
        </mxCell>
        <mxCell id="o5oyRe7uG-Ax35QUJMQp-6" value="SQL&lt;br&gt;DB Cloud Service" style="shape=cylinder3;whiteSpace=wrap;html=1;boundedLbl=1;backgroundOutline=1;size=15;fillColor=#f5f5f5;fontColor=#333333;strokeColor=#666666;" vertex="1" parent="1">
          <mxGeometry x="510" y="340" width="80" height="80" as="geometry" />
        </mxCell>
        <mxCell id="o5oyRe7uG-Ax35QUJMQp-9" value="" style="endArrow=classic;html=1;rounded=0;exitX=0.5;exitY=1;exitDx=0;exitDy=0;entryX=1;entryY=0.25;entryDx=0;entryDy=0;" edge="1" parent="1" source="o5oyRe7uG-Ax35QUJMQp-3" target="o5oyRe7uG-Ax35QUJMQp-1">
          <mxGeometry width="50" height="50" relative="1" as="geometry">
            <mxPoint x="460" y="290" as="sourcePoint" />
            <mxPoint x="510" y="240" as="targetPoint" />
            <Array as="points">
              <mxPoint x="500" y="225" />
            </Array>
          </mxGeometry>
        </mxCell>
        <mxCell id="o5oyRe7uG-Ax35QUJMQp-15" value="Sucess/Failure Callback" style="edgeLabel;html=1;align=center;verticalAlign=middle;resizable=0;points=[];" vertex="1" connectable="0" parent="o5oyRe7uG-Ax35QUJMQp-9">
          <mxGeometry x="0.0676" y="-3" relative="1" as="geometry">
            <mxPoint x="1" as="offset" />
          </mxGeometry>
        </mxCell>
        <mxCell id="o5oyRe7uG-Ax35QUJMQp-12" value="Event Streaming Cloud Service" style="rounded=0;whiteSpace=wrap;html=1;fillColor=#fff2cc;strokeColor=#d6b656;" vertex="1" parent="1">
          <mxGeometry x="710" y="120" width="80" height="270" as="geometry" />
        </mxCell>
        <mxCell id="o5oyRe7uG-Ax35QUJMQp-13" value="" style="endArrow=classic;html=1;rounded=0;exitX=1;exitY=0.75;exitDx=0;exitDy=0;entryX=0;entryY=0.5;entryDx=0;entryDy=0;" edge="1" parent="1" source="o5oyRe7uG-Ax35QUJMQp-1" target="o5oyRe7uG-Ax35QUJMQp-12">
          <mxGeometry width="50" height="50" relative="1" as="geometry">
            <mxPoint x="460" y="290" as="sourcePoint" />
            <mxPoint x="510" y="240" as="targetPoint" />
          </mxGeometry>
        </mxCell>
        <mxCell id="o5oyRe7uG-Ax35QUJMQp-14" value="LoginEvent and RegistrationEvent" style="edgeLabel;html=1;align=center;verticalAlign=middle;resizable=0;points=[];" vertex="1" connectable="0" parent="o5oyRe7uG-Ax35QUJMQp-13">
          <mxGeometry x="0.247" y="2" relative="1" as="geometry">
            <mxPoint x="-1" as="offset" />
          </mxGeometry>
        </mxCell>
        <mxCell id="o5oyRe7uG-Ax35QUJMQp-18" value="UserProfileService" style="rounded=0;whiteSpace=wrap;html=1;fillColor=#d5e8d4;strokeColor=#82b366;" vertex="1" parent="1">
          <mxGeometry x="210" y="350" width="150" height="60" as="geometry" />
        </mxCell>
        <mxCell id="o5oyRe7uG-Ax35QUJMQp-19" value="" style="sketch=0;outlineConnect=0;fontColor=#232F3E;gradientColor=none;fillColor=#232F3D;strokeColor=none;dashed=0;verticalLabelPosition=bottom;verticalAlign=top;align=center;html=1;fontSize=12;fontStyle=0;aspect=fixed;pointerEvents=1;shape=mxgraph.aws4.mobile_client;" vertex="1" parent="1">
          <mxGeometry x="-290" y="191" width="41" height="78" as="geometry" />
        </mxCell>
        <mxCell id="o5oyRe7uG-Ax35QUJMQp-20" value="" style="outlineConnect=0;dashed=0;verticalLabelPosition=bottom;verticalAlign=top;align=center;html=1;shape=mxgraph.aws3.management_console;fillColor=#D2D3D3;gradientColor=none;" vertex="1" parent="1">
          <mxGeometry x="-301" y="300" width="63" height="63" as="geometry" />
        </mxCell>
        <mxCell id="o5oyRe7uG-Ax35QUJMQp-21" value="" style="rounded=0;whiteSpace=wrap;html=1;align=right;fontSize=18;labelPosition=left;verticalLabelPosition=top;verticalAlign=bottom;horizontal=1;dashed=1;dashPattern=8 8;fillStyle=auto;fillColor=none;" vertex="1" parent="1">
          <mxGeometry x="-340" y="80" width="140" height="410" as="geometry" />
        </mxCell>
        <mxCell id="o5oyRe7uG-Ax35QUJMQp-22" value="Client" style="text;html=1;strokeColor=none;fillColor=none;align=center;verticalAlign=middle;whiteSpace=wrap;rounded=0;" vertex="1" parent="1">
          <mxGeometry x="-301" y="110" width="60" height="30" as="geometry" />
        </mxCell>
        <mxCell id="o5oyRe7uG-Ax35QUJMQp-24" value="" style="endArrow=classic;html=1;rounded=0;entryX=0.01;entryY=0.45;entryDx=0;entryDy=0;entryPerimeter=0;exitX=1;exitY=0.5;exitDx=0;exitDy=0;" edge="1" parent="1" source="o5oyRe7uG-Ax35QUJMQp-21" target="o5oyRe7uG-Ax35QUJMQp-7">
          <mxGeometry width="50" height="50" relative="1" as="geometry">
            <mxPoint x="340" y="350" as="sourcePoint" />
            <mxPoint x="390" y="300" as="targetPoint" />
          </mxGeometry>
        </mxCell>
        <mxCell id="o5oyRe7uG-Ax35QUJMQp-30" value="HTTPS" style="edgeLabel;html=1;align=center;verticalAlign=middle;resizable=0;points=[];" vertex="1" connectable="0" parent="o5oyRe7uG-Ax35QUJMQp-24">
          <mxGeometry x="0.7577" y="3" relative="1" as="geometry">
            <mxPoint x="-21" y="-2" as="offset" />
          </mxGeometry>
        </mxCell>
        <mxCell id="o5oyRe7uG-Ax35QUJMQp-26" value="CDN" style="rounded=0;whiteSpace=wrap;html=1;fillColor=#dae8fc;strokeColor=#6c8ebf;" vertex="1" parent="1">
          <mxGeometry x="-160" y="80" width="60" height="410" as="geometry" />
        </mxCell>
        <mxCell id="o5oyRe7uG-Ax35QUJMQp-27" value="Load Balancer" style="rounded=0;whiteSpace=wrap;html=1;fillColor=#dae8fc;strokeColor=#6c8ebf;" vertex="1" parent="1">
          <mxGeometry x="-80" y="80" width="60" height="410" as="geometry" />
        </mxCell>
        <mxCell id="o5oyRe7uG-Ax35QUJMQp-31" value="" style="endArrow=classic;html=1;rounded=0;exitX=0.5;exitY=1;exitDx=0;exitDy=0;entryX=0.5;entryY=0;entryDx=0;entryDy=0;entryPerimeter=0;" edge="1" parent="1" source="o5oyRe7uG-Ax35QUJMQp-1" target="o5oyRe7uG-Ax35QUJMQp-6">
          <mxGeometry width="50" height="50" relative="1" as="geometry">
            <mxPoint x="400" y="360" as="sourcePoint" />
            <mxPoint x="450" y="310" as="targetPoint" />
            <Array as="points">
              <mxPoint x="280" y="320" />
              <mxPoint x="550" y="320" />
            </Array>
          </mxGeometry>
        </mxCell>
        <mxCell id="o5oyRe7uG-Ax35QUJMQp-32" value="" style="endArrow=classic;html=1;rounded=0;exitX=1;exitY=0.5;exitDx=0;exitDy=0;entryX=0;entryY=0.5;entryDx=0;entryDy=0;entryPerimeter=0;" edge="1" parent="1" source="o5oyRe7uG-Ax35QUJMQp-18" target="o5oyRe7uG-Ax35QUJMQp-6">
          <mxGeometry width="50" height="50" relative="1" as="geometry">
            <mxPoint x="400" y="360" as="sourcePoint" />
            <mxPoint x="450" y="310" as="targetPoint" />
          </mxGeometry>
        </mxCell>
        <mxCell id="o5oyRe7uG-Ax35QUJMQp-52" value="Customer Profile&lt;br&gt;Data" style="edgeLabel;html=1;align=center;verticalAlign=middle;resizable=0;points=[];" vertex="1" connectable="0" parent="o5oyRe7uG-Ax35QUJMQp-32">
          <mxGeometry x="-0.3045" y="-3" relative="1" as="geometry">
            <mxPoint x="-1" as="offset" />
          </mxGeometry>
        </mxCell>
        <mxCell id="o5oyRe7uG-Ax35QUJMQp-33" value="UserConsent&lt;br&gt;Management&lt;br&gt;Service" style="rounded=0;whiteSpace=wrap;html=1;fillColor=#d5e8d4;strokeColor=#82b366;" vertex="1" parent="1">
          <mxGeometry x="210" y="470" width="150" height="60" as="geometry" />
        </mxCell>
        <mxCell id="o5oyRe7uG-Ax35QUJMQp-34" value="" style="endArrow=classic;html=1;rounded=0;exitX=1;exitY=0.5;exitDx=0;exitDy=0;entryX=0.5;entryY=1;entryDx=0;entryDy=0;entryPerimeter=0;" edge="1" parent="1" source="o5oyRe7uG-Ax35QUJMQp-33" target="o5oyRe7uG-Ax35QUJMQp-6">
          <mxGeometry width="50" height="50" relative="1" as="geometry">
            <mxPoint x="370" y="270" as="sourcePoint" />
            <mxPoint x="420" y="220" as="targetPoint" />
            <Array as="points">
              <mxPoint x="550" y="500" />
            </Array>
          </mxGeometry>
        </mxCell>
        <mxCell id="o5oyRe7uG-Ax35QUJMQp-50" value="Save Customer &lt;br&gt;Preferences" style="edgeLabel;html=1;align=center;verticalAlign=middle;resizable=0;points=[];" vertex="1" connectable="0" parent="o5oyRe7uG-Ax35QUJMQp-34">
          <mxGeometry x="-0.2916" y="4" relative="1" as="geometry">
            <mxPoint x="-1" as="offset" />
          </mxGeometry>
        </mxCell>
        <mxCell id="o5oyRe7uG-Ax35QUJMQp-37" value="ThirdPartyAndEmail&lt;br&gt;IntegrationMicroservice" style="rounded=0;whiteSpace=wrap;html=1;fillColor=#e1d5e7;strokeColor=#9673a6;" vertex="1" parent="1">
          <mxGeometry x="220" y="630" width="150" height="60" as="geometry" />
        </mxCell>
        <mxCell id="o5oyRe7uG-Ax35QUJMQp-41" value="" style="endArrow=classic;html=1;rounded=0;exitX=0.428;exitY=-0.017;exitDx=0;exitDy=0;exitPerimeter=0;" edge="1" parent="1" source="o5oyRe7uG-Ax35QUJMQp-37" target="o5oyRe7uG-Ax35QUJMQp-33">
          <mxGeometry width="50" height="50" relative="1" as="geometry">
            <mxPoint x="220" y="610" as="sourcePoint" />
            <mxPoint x="284.65959328028293" y="676.9999999999995" as="targetPoint" />
          </mxGeometry>
        </mxCell>
        <mxCell id="o5oyRe7uG-Ax35QUJMQp-49" value="Fetch the whitelisted emails&amp;nbsp;&lt;br&gt;allowed by user." style="edgeLabel;html=1;align=center;verticalAlign=middle;resizable=0;points=[];" vertex="1" connectable="0" parent="o5oyRe7uG-Ax35QUJMQp-41">
          <mxGeometry x="-0.0161" y="2" relative="1" as="geometry">
            <mxPoint as="offset" />
          </mxGeometry>
        </mxCell>
        <mxCell id="o5oyRe7uG-Ax35QUJMQp-44" value="" style="endArrow=classic;html=1;rounded=0;entryX=0.5;entryY=0;entryDx=0;entryDy=0;exitX=0.5;exitY=1;exitDx=0;exitDy=0;" edge="1" parent="1" source="o5oyRe7uG-Ax35QUJMQp-18" target="o5oyRe7uG-Ax35QUJMQp-33">
          <mxGeometry width="50" height="50" relative="1" as="geometry">
            <mxPoint x="250" y="460" as="sourcePoint" />
            <mxPoint x="300" y="410" as="targetPoint" />
          </mxGeometry>
        </mxCell>
        <mxCell id="o5oyRe7uG-Ax35QUJMQp-51" value="Customer Preferences" style="edgeLabel;html=1;align=center;verticalAlign=middle;resizable=0;points=[];" vertex="1" connectable="0" parent="o5oyRe7uG-Ax35QUJMQp-44">
          <mxGeometry x="-0.1899" y="2" relative="1" as="geometry">
            <mxPoint y="1" as="offset" />
          </mxGeometry>
        </mxCell>
        <mxCell id="o5oyRe7uG-Ax35QUJMQp-54" value="API Gateway" style="rounded=0;whiteSpace=wrap;html=1;fillColor=#dae8fc;strokeColor=#6c8ebf;" vertex="1" parent="1">
          <mxGeometry y="80" width="60" height="410" as="geometry" />
        </mxCell>
        <mxCell id="o5oyRe7uG-Ax35QUJMQp-55" value="UserManagementService" style="text;html=1;strokeColor=none;fillColor=none;align=center;verticalAlign=middle;whiteSpace=wrap;rounded=0;" vertex="1" parent="1">
          <mxGeometry x="200" y="90" width="60" height="30" as="geometry" />
        </mxCell>
      </root>
    </mxGraphModel>
  </diagram>
</mxfile>
